<svg width="18" height="18" viewBox="0 0 18 18" fill="none" xmlns="http://www.w3.org/2000/svg">
<path d="M9.18924 8.69488L8.99969 8.88188L8.80929 8.69488C8.4555 8.34559 7.97835 8.14973 7.48118 8.14973C6.98401 8.14973 6.50686 8.34559 6.15307 8.69488C5.97748 8.8638 5.83779 9.06643 5.74238 9.29062C5.64696 9.51482 5.59778 9.75596 5.59778 9.99961C5.59778 10.2433 5.64696 10.4844 5.74238 10.7086C5.83779 10.9328 5.97748 11.1354 6.15307 11.3044L8.99969 14.1L11.8463 11.3044C12.0219 11.1354 12.1616 10.9328 12.257 10.7086C12.3524 10.4844 12.4016 10.2433 12.4016 9.99961C12.4016 9.75596 12.3524 9.51482 12.257 9.29062C12.1616 9.06643 12.0219 8.8638 11.8463 8.69488C11.4924 8.34553 11.0151 8.14966 10.5178 8.14966C10.0205 8.14966 9.54318 8.34553 9.18924 8.69488Z" fill="white"/>
<path d="M17.2506 8.39914L9.60068 0.749218C9.52181 0.670215 9.42814 0.607539 9.32502 0.564775C9.2219 0.522011 9.11137 0.5 8.99973 0.5C8.8881 0.5 8.77756 0.522011 8.67445 0.564775C8.57133 0.607539 8.47766 0.670215 8.39879 0.749218L0.748866 8.39914C0.63003 8.51801 0.549105 8.66945 0.516323 8.83431C0.483541 8.99917 0.500373 9.17005 0.564692 9.32534C0.629011 9.48063 0.737928 9.61337 0.877675 9.70677C1.01742 9.80017 1.18172 9.85004 1.34981 9.85008H2.1998V15.8C2.1998 16.7376 2.96224 17.5 3.89978 17.5H14.0997C15.0372 17.5 15.7997 16.7376 15.7997 15.8V9.85008H16.6497C16.8177 9.85004 16.982 9.80017 17.1218 9.70677C17.2615 9.61337 17.3705 9.48063 17.4348 9.32534C17.4991 9.17005 17.5159 8.99917 17.4831 8.83431C17.4504 8.66945 17.3694 8.51801 17.2506 8.39914ZM14.1005 15.8H3.89978V7.65285L8.99973 2.5529L14.0997 7.65285V11.5501L14.1005 15.8Z" fill="white"/>
</svg>
