<svg width="16" height="16" viewBox="0 0 16 16" fill="none" xmlns="http://www.w3.org/2000/svg">
<path d="M15 13.4444H5.66667M1 2.55554H4.11111H1ZM15 2.55554H7.22222H15ZM1 7.99999H10.3333H1ZM15 7.99999H13.4444H15ZM1 13.4444H2.55556H1Z" stroke="white" stroke-width="1.6" stroke-linecap="round" stroke-linejoin="round"/>
<path d="M5.66664 4.11111C6.52575 4.11111 7.2222 3.41467 7.2222 2.55556C7.2222 1.69645 6.52575 1 5.66664 1C4.80753 1 4.11108 1.69645 4.11108 2.55556C4.11108 3.41467 4.80753 4.11111 5.66664 4.11111Z" stroke="white" stroke-width="1.6" stroke-linecap="round"/>
<path d="M11.8889 9.55557C12.748 9.55557 13.4445 8.85912 13.4445 8.00001C13.4445 7.1409 12.748 6.44446 11.8889 6.44446C11.0298 6.44446 10.3333 7.1409 10.3333 8.00001C10.3333 8.85912 11.0298 9.55557 11.8889 9.55557Z" stroke="white" stroke-width="1.6" stroke-linecap="round"/>
<path d="M4.1111 15C4.97021 15 5.66665 14.3036 5.66665 13.4445C5.66665 12.5854 4.97021 11.8889 4.1111 11.8889C3.25199 11.8889 2.55554 12.5854 2.55554 13.4445C2.55554 14.3036 3.25199 15 4.1111 15Z" stroke="white" stroke-width="1.6" stroke-linecap="round"/>
</svg>
