<svg width="12" height="12" viewBox="0 0 12 12" fill="none" xmlns="http://www.w3.org/2000/svg">
<path d="M0 9.50035V11.6C0 11.8209 0.179086 12 0.4 12H2.49965L9.58912 4.91053C9.74533 4.75432 9.74533 4.50106 9.58912 4.34485L7.65515 2.41088C7.49894 2.25467 7.24568 2.25467 7.08947 2.41088L0 9.50035ZM11.805 2.69463C12.065 2.43466 12.065 2.01472 11.805 1.75476L10.2452 0.194973C9.98528 -0.064991 9.56534 -0.064991 9.30537 0.194973L8.36839 1.13196C8.21218 1.28817 8.21218 1.54144 8.36839 1.69765L10.3024 3.63161C10.4586 3.78782 10.7118 3.78782 10.868 3.63161L11.805 2.69463Z" fill="white"/>
</svg>
