<svg width="18" height="19" viewBox="0 0 18 19" fill="none" xmlns="http://www.w3.org/2000/svg">
<path d="M17.3342 3.37393L16.1927 4.26643C14.6364 2.27702 12.216 1 9.49798 1C4.80477 1 1.00608 4.79464 1.00001 9.48988C0.993936 14.1892 4.80072 18 9.49798 18C13.1672 18 16.2939 15.6726 17.4839 12.4123C17.5143 12.3273 17.4698 12.2321 17.3848 12.2038L16.2373 11.8092C16.1973 11.7955 16.1535 11.7979 16.1153 11.8161C16.0771 11.8342 16.0475 11.8666 16.0329 11.9063C15.9964 12.0075 15.956 12.1087 15.9135 12.2079C15.5633 13.0376 15.0614 13.7824 14.4219 14.4219C13.7875 15.0575 13.0365 15.5646 12.2099 15.9155C11.3538 16.2777 10.4411 16.4619 9.50203 16.4619C8.56096 16.4619 7.65025 16.2777 6.79417 15.9155C5.96679 15.5661 5.21544 15.0588 4.58215 14.4219C3.94607 13.7876 3.43947 13.0356 3.0906 12.2079C2.72834 11.3498 2.54417 10.439 2.54417 9.49798C2.54417 8.5569 2.72834 7.64619 3.0906 6.7881C3.44072 5.95833 3.94263 5.21357 4.58215 4.57405C5.22167 3.93452 5.96644 3.43262 6.79417 3.08048C7.65025 2.71821 8.56298 2.53405 9.50203 2.53405C10.4431 2.53405 11.3538 2.71821 12.2099 3.08048C13.0373 3.42988 13.7886 3.93719 14.4219 4.57405C14.6223 4.77441 14.8105 4.9869 14.9845 5.20952L13.7662 6.16071C13.7421 6.17936 13.7237 6.20443 13.7132 6.23305C13.7028 6.26166 13.7006 6.29266 13.7069 6.32247C13.7132 6.35228 13.7279 6.37969 13.7491 6.40156C13.7703 6.42342 13.7973 6.43885 13.8269 6.44607L17.3807 7.31631C17.4819 7.3406 17.5811 7.26369 17.5811 7.16048L17.5973 3.4994C17.5952 3.36583 17.4394 3.29095 17.3342 3.37393Z" fill="white" stroke="white" stroke-width="0.2"/>
</svg>
