<svg width="20" height="19" viewBox="0 0 20 19" fill="none" xmlns="http://www.w3.org/2000/svg">
<path d="M19.2863 7.35943C19.5532 7.12779 19.4106 6.68917 19.0585 6.65881L13.0498 6.14068C12.9023 6.12796 12.7738 6.03476 12.716 5.89845L10.3685 0.368092C10.2305 0.0430517 9.76978 0.0431767 9.63199 0.368292L7.28413 5.90791C7.22623 6.04451 7.09749 6.13785 6.94965 6.15039L0.944651 6.65986C0.592081 6.68977 0.449119 7.12907 0.716558 7.36075L5.27752 11.3119C5.38974 11.4091 5.43888 11.5605 5.40515 11.7051L4.03537 17.5768C3.95498 17.9214 4.32867 18.193 4.6316 18.0102L9.79331 14.8948C9.92042 14.818 10.0796 14.818 10.2067 14.8948L15.3699 18.0111C15.6726 18.1938 16.0461 17.9227 15.9663 17.5783L14.6044 11.7046C14.5709 11.5603 14.62 11.4093 14.7319 11.3122L19.2863 7.35943ZM10.2068 13.0251C10.0796 12.9482 9.92032 12.9481 9.79309 13.0249L7.05206 14.6797C6.74908 14.8627 6.3753 14.5909 6.45582 14.2463L7.18509 11.125C7.21886 10.9805 7.16982 10.8291 7.05769 10.7319L4.63358 8.62901C4.36667 8.39747 4.5091 7.95889 4.86112 7.92835L8.05975 7.65084C8.20753 7.63802 8.33608 7.54448 8.39373 7.40781L9.63207 4.4722C9.76952 4.14638 10.2311 4.14609 10.369 4.47176L11.6161 7.41823C11.6739 7.55467 11.8023 7.64801 11.9499 7.66082L15.1489 7.93835C15.5009 7.96889 15.6433 8.40747 15.3764 8.63901L12.9523 10.7419C12.8402 10.8391 12.7911 10.9905 12.8249 11.135L13.554 14.2553C13.6345 14.6001 13.2604 14.8718 12.9574 14.6886L10.2068 13.0251Z" fill="white"/>
</svg>
