<svg width="19" height="21" viewBox="0 0 19 21" fill="none" xmlns="http://www.w3.org/2000/svg">
<path fill-rule="evenodd" clip-rule="evenodd" d="M0.0501497 1.11516C0.0972078 0.937495 0.17605 0.772761 0.280221 0.627412C0.40702 0.449725 0.567257 0.306902 0.747243 0.202678C0.927042 0.0981114 1.13056 0.0298441 1.34776 0.00791328C1.52563 -0.0104144 1.70776 0.00286399 1.88535 0.0501497C2.0212 0.0861323 2.14949 0.140698 2.26734 0.210962L17.4396 8.8808C17.5625 8.94817 17.6768 9.03322 17.7782 9.13479C17.9087 9.26509 18.0119 9.41658 18.0854 9.58034C18.1749 9.77879 18.2178 9.98842 18.2176 10.1957C18.2178 10.403 18.1749 10.6126 18.0854 10.8111C18.0119 10.9749 17.9087 11.1263 17.7782 11.2566C17.6768 11.3582 17.5625 11.4433 17.4395 11.5107L2.26735 20.1805C2.1495 20.2507 2.02121 20.3053 1.88535 20.3413C1.70773 20.3886 1.52557 20.4018 1.34767 20.3835C1.1305 20.3616 0.927016 20.2933 0.747243 20.1888C0.567301 20.0846 0.407097 19.9418 0.280313 19.7641C0.176096 19.6188 0.0972214 19.454 0.0501496 19.2763C0.0139908 19.1405 -0.00228217 19.002 0.000256648 18.8648V1.5266C-0.00228215 1.38942 0.013991 1.25096 0.0501497 1.11516ZM3.00026 4.08503V16.3064L13.694 10.1957L3.00026 4.08503Z" fill="white"/>
</svg>
